<svg width="950" height="325" viewBox="0 0 950 325" fill="none" xmlns="http://www.w3.org/2000/svg">
<path d="M408.92 102.33V177.72H383.5V149.93H360.03V177.72H334.61V102.33H360.03V129.04H383.5V102.33H408.92Z" fill="white"/>
<path d="M483.34 164.58H454.69L449.63 177.72H423.78L456.73 102.33H481.72L514.67 177.72H488.39L483.33 164.58H483.34ZM476.34 146.27L469.02 127.32L461.7 146.27H476.35H476.34Z" fill="white"/>
<path d="M525.45 140.02C525.45 116.87 543.22 100.6 567.45 100.6C582.2 100.6 593.83 105.98 601.27 115.68L585.22 130C580.81 124.4 575.53 121.17 568.74 121.17C558.19 121.17 551.08 128.49 551.08 140.02C551.08 151.55 558.19 158.87 568.74 158.87C575.53 158.87 580.8 155.64 585.22 150.04L601.27 164.36C593.84 174.05 582.21 179.44 567.45 179.44C543.22 179.44 525.45 163.18 525.45 140.02Z" fill="white"/>
<path d="M650.06 152.73L644.35 159.09V177.72H619.37V102.33H644.35V129.68L669.12 102.33H696.8L666.64 135.5L698.31 177.72H668.91L650.06 152.73Z" fill="white"/>
<path d="M775.21 158.55V177.72H712.53V102.33H773.8V121.5H737.51V130.33H769.39V148.64H737.51V158.55H775.21Z" fill="white"/>
<path d="M828.09 158.76H821.2V177.71H795.78V102.32H832.07C853.07 102.32 866.42 113.3 866.42 130.75C866.42 141.63 861.25 149.81 852.2 154.44L868.03 177.7H840.89L828.07 158.75L828.09 158.76ZM830.46 121.93H821.2V139.59H830.46C837.46 139.59 840.8 136.25 840.8 130.76C840.8 125.27 837.46 121.93 830.46 121.93Z" fill="white"/>
<path d="M882.04 171.69L890.22 153.17C897.33 157.37 906.81 160.06 915.1 160.06C922.32 160.06 924.9 158.55 924.9 155.97C924.9 146.49 883.22 154.14 883.22 126.03C883.22 112.03 894.96 100.61 918.33 100.61C928.45 100.61 938.9 102.76 946.76 107.18L939.11 125.6C931.68 121.83 924.68 120 918.11 120C910.68 120 908.31 122.15 908.31 124.74C908.31 133.79 949.99 126.25 949.99 154.03C949.99 167.82 938.25 179.45 914.88 179.45C902.28 179.45 889.57 176.33 882.03 171.7" fill="white"/>
<path d="M645.33 264.4C645.33 277.54 634.24 285.19 613.45 285.19H571.02V209.8H611.299C632.09 209.8 641.78 218.09 641.78 229.51C641.78 236.51 638.23 242.33 631.33 245.77C640.16 249 645.33 255.46 645.33 264.4ZM596 227.57V238.77H607.849C613.559 238.77 616.14 236.83 616.14 233.17C616.14 229.51 613.549 227.57 607.849 227.57H596ZM619.69 261.49C619.69 257.61 616.889 255.57 611.289 255.57H596V267.42H611.289C616.889 267.42 619.69 265.37 619.69 261.5" fill="white"/>
<path d="M727.72 266.01V285.19H665.04V209.8H726.32V228.97H690.03V237.8H721.9V256.11H690.03V266.01H727.72Z" fill="white"/>
<path d="M815.6 285.19L815.39 250.83L799.02 278.4H787.82L771.45 252.01V285.19H748.29V209.8H769.19L793.74 249.97L817.65 209.8H838.54L838.76 285.19H815.6Z" fill="white"/>
<path d="M334.61 206.18H371.77C396.97 206.18 414.31 220.5 414.31 243.87C414.31 267.24 396.97 281.56 371.77 281.56H334.61V206.17V206.18ZM370.69 261.75C381.35 261.75 388.68 255.4 388.68 243.87C388.68 232.34 381.36 225.99 370.69 225.99H360.03V261.75H370.69Z" fill="white"/>
<path d="M431.32 243.87C431.32 221.04 449.31 204.45 473.86 204.45C498.41 204.45 516.4 221.04 516.4 243.87C516.4 266.7 498.42 283.29 473.86 283.29C449.3 283.29 431.32 266.7 431.32 243.87ZM490.77 243.87C490.77 232.13 483.23 225.02 473.86 225.02C464.49 225.02 456.95 232.13 456.95 243.87C456.95 255.61 464.49 262.72 473.86 262.72C483.23 262.72 490.77 255.61 490.77 243.87Z" fill="white"/>
<path d="M839.03 315.18C839.03 309.97 843.26 305.74 848.47 305.74H907.27C912.48 305.74 916.71 309.97 916.71 315.18C916.71 320.39 912.48 324.62 907.27 324.62H848.47C843.26 324.62 839.03 320.39 839.03 315.18Z" fill="#00D600"/>
<path d="M154.18 36.5C154.18 48.65 144.33 58.5 132.18 58.5C120.03 58.5 110.18 48.65 110.18 36.5C110.18 24.35 120.03 14.5 132.18 14.5C144.33 14.5 154.18 24.35 154.18 36.5Z" fill="#00D600"/>
<path d="M22 60.3102C26.79 60.3102 30.68 64.2102 30.68 68.9902C30.68 73.7702 26.78 77.6702 22 77.6702C17.22 77.6702 13.32 73.7702 13.32 68.9902C13.32 64.2102 17.22 60.3102 22 60.3102ZM22 46.9902C9.85 46.9902 0 56.8402 0 68.9902C0 81.1402 9.85 90.9902 22 90.9902C34.15 90.9902 44 81.1402 44 68.9902C44 56.8402 34.15 46.9902 22 46.9902Z" fill="white"/>
<path d="M242.37 13.32C247.16 13.32 251.05 17.22 251.05 22C251.05 26.78 247.15 30.68 242.37 30.68C237.59 30.68 233.69 26.78 233.69 22C233.69 17.22 237.59 13.32 242.37 13.32ZM242.37 0C230.22 0 220.37 9.85 220.37 22C220.37 34.15 230.22 44 242.37 44C254.52 44 264.37 34.15 264.37 22C264.37 9.85 254.52 0 242.37 0Z" fill="white"/>
<path d="M277.81 124.01C277.81 136.16 287.66 146.01 299.81 146.01C311.96 146.01 321.81 136.16 321.81 124.01C321.81 111.86 311.96 102.01 299.81 102.01C287.66 102.01 277.81 111.86 277.81 124.01Z" fill="#00D600"/>
<path d="M187.28 71.8102C192.07 71.8102 195.96 75.7102 195.96 80.4902C195.96 85.2702 192.06 89.1702 187.28 89.1702C182.5 89.1702 178.6 85.2702 178.6 80.4902C178.6 75.7102 182.5 71.8102 187.28 71.8102ZM187.28 58.4902C175.13 58.4902 165.28 68.3402 165.28 80.4902C165.28 92.6402 175.13 102.49 187.28 102.49C199.43 102.49 209.28 92.6402 209.28 80.4902C209.28 68.3402 199.43 58.4902 187.28 58.4902Z" fill="white"/>
<path d="M132.18 69.7798C120.08 69.7798 110.18 81.0998 110.18 94.9398V125.63C110.18 128.69 107.7 131.17 104.63 131.17C101.56 131.17 99.0798 128.69 99.0798 125.62V157.8C99.0798 154.74 101.56 152.25 104.63 152.25C107.7 152.25 110.18 154.73 110.18 157.79V219.07C110.18 232.91 120.08 244.23 132.18 244.23C144.28 244.23 154.18 232.91 154.18 219.07V94.9198C154.18 81.0798 144.28 69.7598 132.18 69.7598V69.7798ZM140.86 219.09C140.86 225.4 136.8 230.94 132.18 230.94C127.56 230.94 123.5 225.4 123.5 219.09V94.9398C123.5 88.6298 127.56 83.0898 132.18 83.0898C136.8 83.0898 140.86 88.6298 140.86 94.9398V219.09Z" fill="white"/>
<path d="M77.0898 91.7798C64.9898 91.7798 55.0898 103.1 55.0898 116.94V174.71C55.0898 188.55 64.9898 199.87 77.0898 199.87C89.1898 199.87 99.0898 188.55 99.0898 174.71V116.94C99.0898 103.1 89.1898 91.7798 77.0898 91.7798Z" fill="white"/>
<path d="M242.37 69.7803C230.27 69.7803 220.37 81.1003 220.37 94.9403V158.98C219.82 161.48 217.55 163.36 214.82 163.36C212.09 163.36 209.82 161.48 209.27 158.98V138.94C209.27 125.1 199.37 113.78 187.27 113.78C175.17 113.78 165.27 125.1 165.27 138.94V263.18C165.27 277.02 175.17 288.34 187.27 288.34C199.37 288.34 209.27 277.02 209.27 263.18V188.83C209.82 186.33 212.09 184.45 214.82 184.45C217.55 184.45 219.82 186.33 220.37 188.83V219.09C220.37 232.93 230.27 244.25 242.37 244.25C254.47 244.25 264.37 232.93 264.37 219.09V94.9403C264.37 81.1003 254.47 69.7803 242.37 69.7803Z" fill="white"/>
</svg>
